<svg width="124" height="116" fill="none" xmlns="http://www.w3.org/2000/svg"><g clip-path="url(#clip0)" opacity=".35"><mask id="mask0" maskUnits="userSpaceOnUse" x="20" y="23" width="81" height="94"><path d="M47.008 92.347l-.296.12-1.837 7.354 6.295 4.72-.054-.16a4.172 4.172 0 01-1.64-3.303v-1.503l-2.468-7.228zm4.293-1.791c-.133.062-.257.14-.393.195l-.927.379.837 2.455a4.17 4.17 0 012.197-1.072l-1.714-1.957zm9.396 9.909a1.603 1.603 0 100-3.206 1.603 1.603 0 000 3.206zm10.719-9.334l-.925-.378c-.138-.056-.261-.133-.394-.197l-1.715 1.96a4.177 4.177 0 012.197 1.07l.837-2.455zM54.11 101.97l2.224-1.113a4.781 4.781 0 01-.446-1.995c0-.713.165-1.384.446-1.993l-2.218-1.11c-.627-.312-1.435.188-1.435.887v4.432c0 .704.821 1.19 1.429.892zM39.853 49.155h1.604a7.371 7.371 0 006.144-3.288l1.015-1.522H72.78l1.015 1.522a7.371 7.371 0 006.144 3.288h1.604v3.369c1.191.244 2.27.773 3.207 1.481v-6.453C84.75 34.29 73.96 23.5 60.698 23.5S36.646 34.29 36.646 47.552v6.455c.937-.709 2.016-1.24 3.207-1.481v-3.37zm41.401-5.075l-3.163.53a17.503 17.503 0 00-.76-2.938l3.023-1.068c.401 1.129.703 2.3.9 3.476zM60.698 26.707c7.417 0 14.336 3.992 18.055 10.42l-2.776 1.607a17.703 17.703 0 00-15.28-8.82v-3.207zm20.84 31.029c0 2.537-.332 5.012-.94 7.389 2.337-.33 4.147-2.32 4.147-4.745 0-2.088-1.346-3.851-3.207-4.515v1.871zM67.28 101.965c.63.315 1.435-.19 1.435-.887v-4.432c0-.704-.82-1.192-1.428-.892l-2.225 1.113a4.75 4.75 0 01.446 1.995c0 .713-.165 1.384-.445 1.993l2.217 1.11zm7.405-9.498l-.295-.12-2.466 7.228v1.503c0 1.348-.65 2.536-1.64 3.306l-.055.16 6.295-4.72-1.839-7.357zm-7.169-3.832a7.964 7.964 0 01-1.95-4.531 29.799 29.799 0 01-4.36 1.847l-.508.17-.507-.168a29.974 29.974 0 01-4.36-1.848 7.964 7.964 0 01-1.95 4.533l5.045 5.765a4.692 4.692 0 011.772-.352 4.77 4.77 0 011.775.349l5.043-5.765z" fill="#fff"/><path d="M47.297 105.647l-6.052-4.539 1.783-7.134-8.573 3.508c-7.912 3.236-13.19 10.591-13.788 19.017h12.771v-9.62h3.207v9.62h13.767l-6.21-6.21 3.095-4.642zm-6.504-40.525a29.776 29.776 0 01-.94-7.387v-1.87c-1.861.664-3.207 2.428-3.207 4.515 0 2.423 1.81 4.415 4.147 4.742z" fill="#fff"/><path d="M48.331 109.883l6.618 6.617h.301l-3.837-11.242-3.082 4.625zm17.516-5.049l-3.18-1.591a4.78 4.78 0 01-1.968.43 4.75 4.75 0 01-1.968-.432l-3.187 1.594c-.254.127-.52.214-.79.286l3.884 11.379h4.12l3.883-11.379a4.325 4.325 0 01-.794-.287zm4.136.424L66.148 116.5h.301l6.618-6.617-3.084-4.625z" fill="#fff"/><path d="M100.726 116.499c-.598-8.426-5.876-15.781-13.788-19.016l-8.573-3.509 1.784 7.134-6.051 4.539 3.095 4.642-6.212 6.21h13.767v-9.62h3.207v9.62h12.771zM78.335 52.242a10.566 10.566 0 01-7.21-4.595l-.062-.095H50.331l-.063.095a10.564 10.564 0 01-7.209 4.595v5.494a26.502 26.502 0 0017.638 25 26.5 26.5 0 0017.638-25v-5.494zm-27.259 4.93a1.604 1.604 0 11.001-3.207 1.604 1.604 0 010 3.208zm9.621 19.242a6.42 6.42 0 01-6.414-6.413h3.207a3.21 3.21 0 003.207 3.206 3.21 3.21 0 003.207-3.206h3.207a6.42 6.42 0 01-6.414 6.413zm9.62-19.241a1.604 1.604 0 11.002-3.208 1.604 1.604 0 01-.001 3.208z" fill="#fff"/></mask><g mask="url(#mask0)"><path fill="#fff" d="M6.478 19.105h108.269v97.164H6.478z"/><path fill="url(#paint0_linear)" fill-opacity=".75" d="M6.478 19.105h108.269v97.164H6.478z"/></g></g><defs><linearGradient id="paint0_linear" x1="102.254" y1="116.269" x2="1.28" y2="105.918" gradientUnits="userSpaceOnUse"><stop stop-color="#2B2152"/><stop offset="1" stop-color="#2B2152" stop-opacity=".65"/></linearGradient><clipPath id="clip0"><path fill="#fff" d="M0 0h124v116H0z"/></clipPath></defs></svg>