<svg width="276" height="252" fill="none" xmlns="http://www.w3.org/2000/svg"><path d="M137.555 25.16l96.928 170.076H40.627l96.928-170.075z" fill="url(#paint0_linear)"/><path d="M24.302 216.709a1.705 1.705 0 000 2.412l10.854 10.854a1.706 1.706 0 002.412-2.412l-9.648-9.648 9.648-9.648a1.706 1.706 0 00-2.412-2.412l-10.854 10.854zm225.201-.499H25.508v3.411h223.995v-3.411zM124.986 8.984a1.706 1.706 0 00-2.089-1.206l-14.827 3.973a1.705 1.705 0 10.883 3.295l13.179-3.531 3.532 13.179a1.705 1.705 0 103.294-.883l-3.972-14.827zM12.817 204.264l56-96.993-2.955-1.705-55.999 96.993 2.954 1.705zm56-96.993l55.998-96.992-2.954-1.706-55.999 96.993 2.954 1.705zm196.755 94.156a1.704 1.704 0 01-2.088 1.206l-14.827-3.973a1.704 1.704 0 11.883-3.294l13.179 3.531 3.531-13.179a1.705 1.705 0 013.295.882l-3.973 14.827zM153.404 6.147l111.998 193.986-2.954 1.706L150.45 7.853l2.954-1.706z" fill="#FF6641"/><defs><linearGradient id="paint0_linear" x1="137.555" y1="-2.893" x2="137.555" y2="251.927" gradientUnits="userSpaceOnUse"><stop stop-color="#13A19A"/><stop offset=".38" stop-color="#0BCEC5"/><stop offset="1" stop-color="#2E2252"/></linearGradient></defs></svg>